<mxfile host="app.diagrams.net" agent="Mozilla/5.0 (X11; Linux x86_64; rv:128.0) Gecko/20100101 Firefox/128.0" version="25.0.1">
  <diagram name="Page-1" id="gAvligO_c9pF_bg5XD_2">
    <mxGraphModel dx="985" dy="488" grid="1" gridSize="10" guides="1" tooltips="1" connect="1" arrows="1" fold="1" page="1" pageScale="1" pageWidth="827" pageHeight="1169" background="#ffffff" math="0" shadow="0">
      <root>
        <mxCell id="0" />
        <mxCell id="1" parent="0" />
        <mxCell id="Hfv5ktiSSDUrCXjG687T-2" value="" style="rounded=0;whiteSpace=wrap;html=1;" parent="1" vertex="1">
          <mxGeometry x="90" y="570" width="690" height="400" as="geometry" />
        </mxCell>
        <mxCell id="h_TPtG5sdtzdA33OqhRF-8" value="&lt;font style=&quot;font-size: 10px;&quot;&gt;Celery worker&lt;/font&gt;" style="rounded=0;whiteSpace=wrap;html=1;strokeWidth=1;" parent="1" vertex="1">
          <mxGeometry x="650" y="780" width="80" height="40" as="geometry" />
        </mxCell>
        <mxCell id="h_TPtG5sdtzdA33OqhRF-9" value="&lt;font style=&quot;font-size: 10px;&quot;&gt;Currency&lt;/font&gt;" style="rounded=0;whiteSpace=wrap;html=1;strokeWidth=1;" parent="1" vertex="1">
          <mxGeometry x="650" y="900" width="80" height="40" as="geometry" />
        </mxCell>
        <mxCell id="h_TPtG5sdtzdA33OqhRF-10" value="&lt;font style=&quot;font-size: 10px;&quot;&gt;Market&lt;/font&gt;" style="rounded=0;whiteSpace=wrap;html=1;strokeWidth=1;" parent="1" vertex="1">
          <mxGeometry x="540" y="600" width="80" height="40" as="geometry" />
        </mxCell>
        <mxCell id="h_TPtG5sdtzdA33OqhRF-11" value="&lt;font style=&quot;font-size: 10px;&quot;&gt;Transaction&lt;/font&gt;" style="rounded=0;whiteSpace=wrap;html=1;strokeWidth=1;" parent="1" vertex="1">
          <mxGeometry x="510" y="780" width="80" height="40" as="geometry" />
        </mxCell>
        <mxCell id="h_TPtG5sdtzdA33OqhRF-12" value="&lt;font style=&quot;font-size: 10px;&quot;&gt;Authentication&lt;/font&gt;" style="rounded=0;whiteSpace=wrap;html=1;strokeWidth=1;" parent="1" vertex="1">
          <mxGeometry x="200" y="900" width="80" height="40" as="geometry" />
        </mxCell>
        <mxCell id="h_TPtG5sdtzdA33OqhRF-14" value="&lt;font style=&quot;font-size: 10px;&quot;&gt;Collection&lt;/font&gt;" style="rounded=0;whiteSpace=wrap;html=1;strokeWidth=1;" parent="1" vertex="1">
          <mxGeometry x="200" y="600" width="80" height="40" as="geometry" />
        </mxCell>
        <mxCell id="h_TPtG5sdtzdA33OqhRF-18" value="&lt;font style=&quot;font-size: 10px;&quot;&gt;Admin&lt;/font&gt;" style="strokeWidth=1;html=1;shape=mxgraph.flowchart.database;whiteSpace=wrap;" parent="1" vertex="1">
          <mxGeometry x="350" y="890" width="60" height="60" as="geometry" />
        </mxCell>
        <mxCell id="h_TPtG5sdtzdA33OqhRF-19" value="&lt;font style=&quot;font-size: 10px;&quot;&gt;Auction&lt;/font&gt;" style="strokeWidth=1;html=1;shape=mxgraph.flowchart.database;whiteSpace=wrap;" parent="1" vertex="1">
          <mxGeometry x="710" y="630" width="60" height="60" as="geometry" />
        </mxCell>
        <mxCell id="h_TPtG5sdtzdA33OqhRF-20" value="&lt;font style=&quot;font-size: 10px;&quot;&gt;Transaction&lt;/font&gt;" style="strokeWidth=1;html=1;shape=mxgraph.flowchart.database;whiteSpace=wrap;" parent="1" vertex="1">
          <mxGeometry x="520" y="680" width="60" height="60" as="geometry" />
        </mxCell>
        <mxCell id="h_TPtG5sdtzdA33OqhRF-23" value="" style="endArrow=classic;startArrow=classic;html=1;rounded=0;entryX=0.5;entryY=1;entryDx=0;entryDy=0;exitX=0.5;exitY=0;exitDx=0;exitDy=0;strokeWidth=0.5;entryPerimeter=0;" parent="1" source="h_TPtG5sdtzdA33OqhRF-11" target="h_TPtG5sdtzdA33OqhRF-20" edge="1">
          <mxGeometry width="50" height="50" relative="1" as="geometry">
            <mxPoint x="350" y="740" as="sourcePoint" />
            <mxPoint x="440" y="740" as="targetPoint" />
            <Array as="points">
              <mxPoint x="550" y="760" />
            </Array>
          </mxGeometry>
        </mxCell>
        <mxCell id="h_TPtG5sdtzdA33OqhRF-24" value="" style="endArrow=classic;startArrow=classic;html=1;rounded=0;strokeWidth=0.5;edgeStyle=orthogonalEdgeStyle;" parent="1" edge="1">
          <mxGeometry width="50" height="50" relative="1" as="geometry">
            <mxPoint x="350" y="919.66" as="sourcePoint" />
            <mxPoint x="280" y="919.66" as="targetPoint" />
            <Array as="points">
              <mxPoint x="350" y="919.66" />
            </Array>
          </mxGeometry>
        </mxCell>
        <mxCell id="h_TPtG5sdtzdA33OqhRF-25" value="&lt;font style=&quot;font-size: 10px;&quot;&gt;Player&lt;/font&gt;" style="strokeWidth=1;html=1;shape=mxgraph.flowchart.database;whiteSpace=wrap;" parent="1" vertex="1">
          <mxGeometry x="520" y="890" width="60" height="60" as="geometry" />
        </mxCell>
        <mxCell id="h_TPtG5sdtzdA33OqhRF-26" value="" style="endArrow=classic;startArrow=classic;html=1;rounded=0;strokeWidth=0.5;edgeStyle=orthogonalEdgeStyle;entryX=0.5;entryY=0;entryDx=0;entryDy=0;" parent="1" source="h_TPtG5sdtzdA33OqhRF-15" target="h_TPtG5sdtzdA33OqhRF-9" edge="1">
          <mxGeometry width="50" height="50" relative="1" as="geometry">
            <mxPoint x="450" y="840" as="sourcePoint" />
            <mxPoint x="710" y="850" as="targetPoint" />
            <Array as="points">
              <mxPoint x="690" y="840" />
            </Array>
          </mxGeometry>
        </mxCell>
        <mxCell id="h_TPtG5sdtzdA33OqhRF-27" value="" style="endArrow=classic;startArrow=classic;html=1;rounded=0;strokeWidth=0.5;edgeStyle=orthogonalEdgeStyle;exitX=0.5;exitY=1;exitDx=0;exitDy=0;" parent="1" source="h_TPtG5sdtzdA33OqhRF-15" target="h_TPtG5sdtzdA33OqhRF-25" edge="1">
          <mxGeometry width="50" height="50" relative="1" as="geometry">
            <mxPoint x="460" y="840" as="sourcePoint" />
            <mxPoint x="620" y="910" as="targetPoint" />
            <Array as="points">
              <mxPoint x="380" y="880" />
              <mxPoint x="450" y="880" />
              <mxPoint x="450" y="920" />
            </Array>
          </mxGeometry>
        </mxCell>
        <mxCell id="h_TPtG5sdtzdA33OqhRF-28" value="" style="endArrow=classic;startArrow=classic;html=1;rounded=0;strokeWidth=0.5;edgeStyle=orthogonalEdgeStyle;" parent="1" edge="1">
          <mxGeometry width="50" height="50" relative="1" as="geometry">
            <mxPoint x="280" y="610" as="sourcePoint" />
            <mxPoint x="540" y="610" as="targetPoint" />
            <Array as="points">
              <mxPoint x="280" y="610" />
              <mxPoint x="540" y="610" />
            </Array>
          </mxGeometry>
        </mxCell>
        <mxCell id="h_TPtG5sdtzdA33OqhRF-31" value="" style="endArrow=classic;startArrow=classic;html=1;rounded=0;strokeWidth=0.5;edgeStyle=orthogonalEdgeStyle;entryX=1;entryY=0.25;entryDx=0;entryDy=0;" parent="1" source="h_TPtG5sdtzdA33OqhRF-19" target="h_TPtG5sdtzdA33OqhRF-10" edge="1">
          <mxGeometry width="50" height="50" relative="1" as="geometry">
            <mxPoint x="730" y="620" as="sourcePoint" />
            <mxPoint x="630" y="610" as="targetPoint" />
            <Array as="points">
              <mxPoint x="740" y="610" />
            </Array>
          </mxGeometry>
        </mxCell>
        <mxCell id="h_TPtG5sdtzdA33OqhRF-33" value="" style="endArrow=classic;startArrow=classic;html=1;rounded=0;exitX=1;exitY=0.25;exitDx=0;exitDy=0;strokeWidth=0.5;edgeStyle=orthogonalEdgeStyle;" parent="1" source="h_TPtG5sdtzdA33OqhRF-13" edge="1">
          <mxGeometry width="50" height="50" relative="1" as="geometry">
            <mxPoint x="260" y="770" as="sourcePoint" />
            <mxPoint x="510" y="790" as="targetPoint" />
            <Array as="points">
              <mxPoint x="490" y="730" />
              <mxPoint x="490" y="790" />
              <mxPoint x="510" y="790" />
            </Array>
          </mxGeometry>
        </mxCell>
        <mxCell id="h_TPtG5sdtzdA33OqhRF-34" value="" style="endArrow=classic;startArrow=classic;html=1;rounded=0;exitX=0;exitY=0.75;exitDx=0;exitDy=0;strokeWidth=0.5;edgeStyle=orthogonalEdgeStyle;" parent="1" source="h_TPtG5sdtzdA33OqhRF-15" edge="1">
          <mxGeometry width="50" height="50" relative="1" as="geometry">
            <mxPoint x="370" y="840" as="sourcePoint" />
            <mxPoint x="240" y="900" as="targetPoint" />
            <Array as="points">
              <mxPoint x="240" y="860" />
              <mxPoint x="240" y="900" />
            </Array>
          </mxGeometry>
        </mxCell>
        <mxCell id="h_TPtG5sdtzdA33OqhRF-35" value="" style="endArrow=classic;startArrow=classic;html=1;rounded=0;strokeWidth=0.5;edgeStyle=orthogonalEdgeStyle;exitX=0.5;exitY=0;exitDx=0;exitDy=0;" parent="1" source="h_TPtG5sdtzdA33OqhRF-15" target="h_TPtG5sdtzdA33OqhRF-13" edge="1">
          <mxGeometry width="50" height="50" relative="1" as="geometry">
            <mxPoint x="410" y="800" as="sourcePoint" />
            <mxPoint x="354" y="790" as="targetPoint" />
            <Array as="points">
              <mxPoint x="380" y="750" />
            </Array>
          </mxGeometry>
        </mxCell>
        <mxCell id="enK2aX2OMmzwKDNsiHF_-4" value="" style="endArrow=classic;startArrow=classic;html=1;rounded=0;strokeWidth=0.5;edgeStyle=orthogonalEdgeStyle;exitX=0.5;exitY=1;exitDx=0;exitDy=0;" parent="1" source="O7nJ_VvHwbl3gAhKQjip-2" edge="1">
          <mxGeometry width="50" height="50" relative="1" as="geometry">
            <mxPoint x="630" y="630" as="sourcePoint" />
            <mxPoint x="690" y="780" as="targetPoint" />
            <Array as="points" />
          </mxGeometry>
        </mxCell>
        <mxCell id="eQ543xX03F_9Donoq1MF-3" style="edgeStyle=orthogonalEdgeStyle;rounded=0;orthogonalLoop=1;jettySize=auto;html=1;exitX=1;exitY=0.25;exitDx=0;exitDy=0;" parent="1" source="enK2aX2OMmzwKDNsiHF_-5" edge="1">
          <mxGeometry relative="1" as="geometry">
            <mxPoint x="210.28571428571422" y="820" as="targetPoint" />
          </mxGeometry>
        </mxCell>
        <mxCell id="enK2aX2OMmzwKDNsiHF_-5" value="Admin" style="rounded=0;whiteSpace=wrap;html=1;strokeWidth=1;" parent="1" vertex="1">
          <mxGeometry x="130" y="810" width="80" height="40" as="geometry" />
        </mxCell>
        <mxCell id="enK2aX2OMmzwKDNsiHF_-6" value="" style="endArrow=classic;startArrow=classic;html=1;rounded=0;exitX=0.5;exitY=1;exitDx=0;exitDy=0;strokeWidth=0.5;edgeStyle=orthogonalEdgeStyle;" parent="1" source="enK2aX2OMmzwKDNsiHF_-5" edge="1">
          <mxGeometry width="50" height="50" relative="1" as="geometry">
            <mxPoint x="380" y="850" as="sourcePoint" />
            <mxPoint x="200" y="920" as="targetPoint" />
            <Array as="points">
              <mxPoint x="170" y="920" />
              <mxPoint x="200" y="920" />
            </Array>
          </mxGeometry>
        </mxCell>
        <mxCell id="h_TPtG5sdtzdA33OqhRF-15" value="&lt;font style=&quot;font-size: 10px;&quot;&gt;Player&lt;/font&gt;" style="rounded=0;whiteSpace=wrap;html=1;strokeWidth=1;" parent="1" vertex="1">
          <mxGeometry x="340" y="830" width="80" height="40" as="geometry" />
        </mxCell>
        <mxCell id="h_TPtG5sdtzdA33OqhRF-13" value="&lt;font style=&quot;font-size: 10px;&quot;&gt;Account&lt;/font&gt;" style="rounded=0;whiteSpace=wrap;html=1;strokeWidth=1;" parent="1" vertex="1">
          <mxGeometry x="130" y="720" width="80" height="40" as="geometry" />
        </mxCell>
        <mxCell id="h_TPtG5sdtzdA33OqhRF-16" value="&lt;font style=&quot;font-size: 10px;&quot;&gt;&lt;br&gt;Gacha&lt;br&gt;&lt;/font&gt;&lt;div style=&quot;font-size: 11px;&quot;&gt;&lt;font style=&quot;font-size: 10px;&quot;&gt;Rarity&lt;/font&gt;&lt;/div&gt;&lt;div style=&quot;font-size: 10px;&quot;&gt;&lt;font style=&quot;font-size: 10px;&quot;&gt;Player&lt;/font&gt;&lt;font style=&quot;font-size: 10px;&quot;&gt; Gacha&lt;br&gt;&lt;/font&gt;&lt;/div&gt;" style="strokeWidth=1;html=1;shape=mxgraph.flowchart.database;whiteSpace=wrap;" parent="1" vertex="1">
          <mxGeometry x="360" y="620" width="70" height="70" as="geometry" />
        </mxCell>
        <mxCell id="enK2aX2OMmzwKDNsiHF_-23" value="" style="endArrow=classic;startArrow=classic;html=1;rounded=0;entryX=0;entryY=0.75;entryDx=0;entryDy=0;exitX=0.25;exitY=0;exitDx=0;exitDy=0;strokeWidth=0.5;" parent="1" target="h_TPtG5sdtzdA33OqhRF-14" edge="1" source="h_TPtG5sdtzdA33OqhRF-13">
          <mxGeometry width="50" height="50" relative="1" as="geometry">
            <mxPoint x="169.66000000000003" y="720" as="sourcePoint" />
            <mxPoint x="169.66000000000003" y="670" as="targetPoint" />
            <Array as="points">
              <mxPoint x="150" y="630" />
              <mxPoint x="190" y="630" />
            </Array>
          </mxGeometry>
        </mxCell>
        <mxCell id="enK2aX2OMmzwKDNsiHF_-25" value="" style="endArrow=classic;startArrow=classic;html=1;rounded=0;strokeWidth=0.5;edgeStyle=orthogonalEdgeStyle;" parent="1" edge="1">
          <mxGeometry width="50" height="50" relative="1" as="geometry">
            <mxPoint x="240" y="640" as="sourcePoint" />
            <mxPoint x="360" y="660" as="targetPoint" />
            <Array as="points">
              <mxPoint x="240" y="660" />
              <mxPoint x="360" y="660" />
            </Array>
          </mxGeometry>
        </mxCell>
        <mxCell id="enK2aX2OMmzwKDNsiHF_-26" value="" style="endArrow=classic;startArrow=classic;html=1;rounded=0;entryX=0;entryY=0.5;entryDx=0;entryDy=0;exitX=0.25;exitY=0;exitDx=0;exitDy=0;strokeWidth=0.5;" parent="1" source="enK2aX2OMmzwKDNsiHF_-5" edge="1">
          <mxGeometry width="50" height="50" relative="1" as="geometry">
            <mxPoint x="169.66000000000003" y="710" as="sourcePoint" />
            <mxPoint x="200" y="610" as="targetPoint" />
            <Array as="points">
              <mxPoint x="150" y="790" />
              <mxPoint x="100" y="790" />
              <mxPoint x="100" y="610" />
            </Array>
          </mxGeometry>
        </mxCell>
        <mxCell id="enK2aX2OMmzwKDNsiHF_-27" value="" style="endArrow=classic;startArrow=classic;html=1;rounded=0;strokeWidth=0.5;edgeStyle=orthogonalEdgeStyle;entryX=0.325;entryY=1.007;entryDx=0;entryDy=0;exitX=0.75;exitY=0;exitDx=0;exitDy=0;entryPerimeter=0;" parent="1" source="enK2aX2OMmzwKDNsiHF_-5" target="h_TPtG5sdtzdA33OqhRF-10" edge="1">
          <mxGeometry width="50" height="50" relative="1" as="geometry">
            <mxPoint x="210" y="830" as="sourcePoint" />
            <mxPoint x="509.97" y="630" as="targetPoint" />
            <Array as="points">
              <mxPoint x="190" y="770" />
              <mxPoint x="290" y="770" />
              <mxPoint x="290" y="710" />
              <mxPoint x="490" y="710" />
              <mxPoint x="490" y="670" />
              <mxPoint x="566" y="670" />
            </Array>
          </mxGeometry>
        </mxCell>
        <mxCell id="enK2aX2OMmzwKDNsiHF_-28" value="" style="shape=flexArrow;endArrow=classic;html=1;rounded=0;entryX=0.5;entryY=0;entryDx=0;entryDy=0;fillColor=default;" parent="1" edge="1">
          <mxGeometry width="50" height="50" relative="1" as="geometry">
            <mxPoint x="240" y="540" as="sourcePoint" />
            <mxPoint x="239.66000000000003" y="600" as="targetPoint" />
            <Array as="points">
              <mxPoint x="239.66000000000003" y="570" />
            </Array>
          </mxGeometry>
        </mxCell>
        <mxCell id="enK2aX2OMmzwKDNsiHF_-29" value="" style="shape=flexArrow;endArrow=classic;html=1;rounded=0;entryX=0;entryY=0.5;entryDx=0;entryDy=0;fillColor=default;" parent="1" target="h_TPtG5sdtzdA33OqhRF-13" edge="1">
          <mxGeometry width="50" height="50" relative="1" as="geometry">
            <mxPoint x="70" y="740" as="sourcePoint" />
            <mxPoint x="70" y="765" as="targetPoint" />
          </mxGeometry>
        </mxCell>
        <mxCell id="enK2aX2OMmzwKDNsiHF_-30" value="" style="shape=flexArrow;endArrow=classic;html=1;rounded=0;entryX=0.5;entryY=0;entryDx=0;entryDy=0;fillColor=default;" parent="1" edge="1">
          <mxGeometry width="50" height="50" relative="1" as="geometry">
            <mxPoint x="579.31" y="540" as="sourcePoint" />
            <mxPoint x="579.31" y="600" as="targetPoint" />
          </mxGeometry>
        </mxCell>
        <mxCell id="enK2aX2OMmzwKDNsiHF_-31" value="" style="shape=flexArrow;endArrow=classic;html=1;rounded=0;entryX=0;entryY=0.5;entryDx=0;entryDy=0;fillColor=default;" parent="1" edge="1">
          <mxGeometry width="50" height="50" relative="1" as="geometry">
            <mxPoint x="70" y="829.66" as="sourcePoint" />
            <mxPoint x="130" y="829.66" as="targetPoint" />
          </mxGeometry>
        </mxCell>
        <mxCell id="enK2aX2OMmzwKDNsiHF_-33" value="" style="shape=flexArrow;endArrow=classic;html=1;rounded=0;entryX=0.5;entryY=1;entryDx=0;entryDy=0;fillColor=default;" parent="1" target="h_TPtG5sdtzdA33OqhRF-12" edge="1">
          <mxGeometry width="50" height="50" relative="1" as="geometry">
            <mxPoint x="240" y="1000" as="sourcePoint" />
            <mxPoint x="240" y="1010" as="targetPoint" />
          </mxGeometry>
        </mxCell>
        <mxCell id="enK2aX2OMmzwKDNsiHF_-34" value="" style="shape=flexArrow;endArrow=classic;html=1;rounded=0;entryX=0.5;entryY=1;entryDx=0;entryDy=0;fillColor=default;" parent="1" edge="1">
          <mxGeometry width="50" height="50" relative="1" as="geometry">
            <mxPoint x="689.6600000000001" y="1000" as="sourcePoint" />
            <mxPoint x="689.6600000000001" y="940" as="targetPoint" />
          </mxGeometry>
        </mxCell>
        <mxCell id="eQ543xX03F_9Donoq1MF-1" value="" style="endArrow=classic;startArrow=classic;html=1;rounded=0;entryX=1;entryY=0.75;entryDx=0;entryDy=0;exitX=0;exitY=0.25;exitDx=0;exitDy=0;strokeWidth=0.5;" parent="1" source="h_TPtG5sdtzdA33OqhRF-15" target="enK2aX2OMmzwKDNsiHF_-5" edge="1">
          <mxGeometry width="50" height="50" relative="1" as="geometry">
            <mxPoint x="560" y="790" as="sourcePoint" />
            <mxPoint x="560" y="750" as="targetPoint" />
            <Array as="points">
              <mxPoint x="280" y="840" />
            </Array>
          </mxGeometry>
        </mxCell>
        <mxCell id="eQ543xX03F_9Donoq1MF-2" value="" style="endArrow=classic;startArrow=classic;html=1;rounded=0;entryX=1;entryY=0.25;entryDx=0;entryDy=0;exitX=0;exitY=0.75;exitDx=0;exitDy=0;strokeWidth=0.5;edgeStyle=orthogonalEdgeStyle;" parent="1" source="h_TPtG5sdtzdA33OqhRF-11" target="enK2aX2OMmzwKDNsiHF_-5" edge="1">
          <mxGeometry width="50" height="50" relative="1" as="geometry">
            <mxPoint x="350" y="840" as="sourcePoint" />
            <mxPoint x="220" y="840" as="targetPoint" />
            <Array as="points">
              <mxPoint x="280" y="810" />
              <mxPoint x="280" y="820" />
            </Array>
          </mxGeometry>
        </mxCell>
        <mxCell id="O7nJ_VvHwbl3gAhKQjip-2" value="&lt;font style=&quot;font-size: 10px;&quot;&gt;RabbitMQ&lt;/font&gt;" style="rounded=1;whiteSpace=wrap;html=1;" parent="1" vertex="1">
          <mxGeometry x="660" y="700" width="60" height="40" as="geometry" />
        </mxCell>
        <mxCell id="O7nJ_VvHwbl3gAhKQjip-3" value="" style="endArrow=classic;startArrow=classic;html=1;rounded=0;strokeWidth=0.5;edgeStyle=orthogonalEdgeStyle;exitX=1;exitY=0.75;exitDx=0;exitDy=0;entryX=0.5;entryY=0;entryDx=0;entryDy=0;" parent="1" source="h_TPtG5sdtzdA33OqhRF-10" target="O7nJ_VvHwbl3gAhKQjip-2" edge="1">
          <mxGeometry width="50" height="50" relative="1" as="geometry">
            <mxPoint x="700" y="750" as="sourcePoint" />
            <mxPoint x="700" y="790" as="targetPoint" />
            <Array as="points" />
          </mxGeometry>
        </mxCell>
        <mxCell id="YczsM8tTBaPcjciMrkJt-1" value="" style="endArrow=classic;startArrow=classic;html=1;rounded=0;strokeWidth=0.5;edgeStyle=orthogonalEdgeStyle;exitX=0.75;exitY=1;exitDx=0;exitDy=0;" edge="1" parent="1" source="h_TPtG5sdtzdA33OqhRF-10" target="h_TPtG5sdtzdA33OqhRF-11">
          <mxGeometry width="50" height="50" relative="1" as="geometry">
            <mxPoint x="600" y="640" as="sourcePoint" />
            <mxPoint x="610" y="800" as="targetPoint" />
            <Array as="points">
              <mxPoint x="600" y="670" />
              <mxPoint x="630" y="670" />
              <mxPoint x="630" y="800" />
            </Array>
          </mxGeometry>
        </mxCell>
        <mxCell id="YczsM8tTBaPcjciMrkJt-2" value="" style="endArrow=classic;startArrow=classic;html=1;rounded=0;strokeWidth=0.5;edgeStyle=orthogonalEdgeStyle;exitX=0.75;exitY=0;exitDx=0;exitDy=0;entryX=0;entryY=0.75;entryDx=0;entryDy=0;" edge="1" parent="1" source="h_TPtG5sdtzdA33OqhRF-13" target="h_TPtG5sdtzdA33OqhRF-10">
          <mxGeometry width="50" height="50" relative="1" as="geometry">
            <mxPoint x="190" y="715" as="sourcePoint" />
            <mxPoint x="540" y="625" as="targetPoint" />
            <Array as="points">
              <mxPoint x="190" y="695" />
              <mxPoint x="450" y="695" />
              <mxPoint x="450" y="630" />
            </Array>
          </mxGeometry>
        </mxCell>
      </root>
    </mxGraphModel>
  </diagram>
</mxfile>
